<?xml version="1.0" encoding="utf-8"?>
<!-- Generator: Adobe Illustrator 25.2.2, SVG Export Plug-In . SVG Version: 6.00 Build 0)  -->
<svg version="1.2" baseProfile="tiny" id="Layer_1" xmlns="http://www.w3.org/2000/svg" xmlns:xlink="http://www.w3.org/1999/xlink"
	 x="0px" y="0px" viewBox="0 0 552 94" overflow="visible" xml:space="preserve">
<path fill="#4793EB" d="M48.6,70.04c0-3.38-1.19-5.97-3.57-7.78c-2.38-1.81-6.67-3.71-12.87-5.72c-6.19-2.01-11.1-3.98-14.71-5.93
	C7.6,45.28,2.67,38.11,2.67,29.09c0-4.69,1.32-8.87,3.96-12.55c2.64-3.67,6.43-6.55,11.38-8.61c4.94-2.07,10.49-3.1,16.65-3.1
	c6.2,0,11.71,1.12,16.56,3.37c4.84,2.25,8.61,5.41,11.29,9.51c2.68,4.09,4.02,8.74,4.02,13.95H48.66c0-3.97-1.25-7.06-3.75-9.27
	c-2.5-2.21-6.02-3.31-10.54-3.31c-4.37,0-7.76,0.92-10.19,2.77c-2.42,1.85-3.63,4.28-3.63,7.3c0,2.82,1.42,5.19,4.26,7.09
	c2.84,1.91,7.02,3.7,12.54,5.36c10.17,3.06,17.57,6.85,22.22,11.38c4.65,4.53,6.97,10.17,6.97,16.93c0,7.51-2.84,13.4-8.52,17.67
	C52.33,91.86,44.69,94,35.08,94c-6.67,0-12.75-1.22-18.23-3.67c-5.48-2.44-9.66-5.79-12.54-10.04c-2.88-4.25-4.32-9.18-4.32-14.78
	h17.93c0,9.58,5.72,14.37,17.16,14.37c4.25,0,7.56-0.86,9.95-2.59C47.41,75.55,48.6,73.14,48.6,70.04z"/>
<path fill="#4793EB" d="M98.1,12.46v15.86h11.02v12.64H98.1v32.19c0,2.38,0.46,4.09,1.37,5.13c0.91,1.03,2.66,1.55,5.24,1.55
	c1.91,0,3.59-0.14,5.06-0.42v13.05C106.4,93.48,102.92,94,99.35,94c-12.07,0-18.23-6.1-18.47-18.3V40.95h-9.41V28.31h9.41V12.46
	H98.1z"/>
<path fill="#4793EB" d="M114.24,59.96c0-6.4,1.23-12.1,3.69-17.11c2.46-5.01,6.01-8.88,10.63-11.62c4.63-2.74,10-4.11,16.11-4.11
	c8.7,0,15.79,2.66,21.3,7.99c5.5,5.33,8.57,12.56,9.2,21.7l0.12,4.41c0,9.89-2.76,17.83-8.28,23.81C161.5,91.01,154.09,94,144.8,94
	c-9.29,0-16.71-2.98-22.25-8.94c-5.54-5.96-8.31-14.07-8.31-24.32V59.96z M131.46,61.19c0,6.13,1.15,10.82,3.45,14.06
	c2.3,3.24,5.6,4.87,9.89,4.87c4.17,0,7.43-1.6,9.77-4.81c2.34-3.2,3.51-8.33,3.51-15.37c0-6.01-1.17-10.67-3.51-13.97
	c-2.34-3.3-5.64-4.95-9.89-4.95c-4.21,0-7.47,1.64-9.77,4.93C132.61,49.22,131.46,54.3,131.46,61.19z"/>
<path fill="#4793EB" d="M222.12,44.47c-2.34-0.32-4.41-0.48-6.2-0.48c-6.51,0-10.78,2.21-12.81,6.62v42.2H185.9V28.31h16.26
	l0.48,7.69c3.45-5.92,8.24-8.88,14.36-8.88c1.91,0,3.69,0.26,5.36,0.78L222.12,44.47z"/>
<path fill="#4793EB" d="M260.06,94c-9.45,0-17.15-2.9-23.08-8.7c-5.94-5.8-8.91-13.53-8.91-23.19v-1.67
	c0-6.48,1.25-12.27,3.75-17.38c2.5-5.11,6.05-9.04,10.63-11.8c4.59-2.76,9.82-4.14,15.7-4.14c8.82,0,15.76,2.78,20.82,8.35
	c5.06,5.56,7.59,13.45,7.59,23.66v7.03h-41.04c0.56,4.21,2.23,7.59,5.03,10.13c2.8,2.54,6.34,3.81,10.63,3.81
	c6.63,0,11.81-2.4,15.55-7.21l8.46,9.48c-2.58,3.66-6.08,6.51-10.48,8.55C270.31,92.98,265.42,94,260.06,94z M258.1,41.01
	c-3.42,0-6.19,1.16-8.31,3.47c-2.12,2.31-3.48,5.63-4.08,9.94h23.95v-1.38c-0.08-3.83-1.11-6.8-3.1-8.89
	C264.57,42.06,261.75,41.01,258.1,41.01z"/>
<path fill="#4793EB" d="M301.04,92.81V40.95h-9.59V28.31h9.59v-5.48c0-7.23,2.08-12.84,6.23-16.84C311.42,2,317.23,0,324.69,0
	c2.38,0,5.3,0.4,8.76,1.19l-0.18,13.35c-1.43-0.36-3.18-0.54-5.24-0.54c-6.47,0-9.71,3.04-9.71,9.12v5.19h12.81v12.64h-12.81v51.86
	H301.04z"/>
<path fill="#4793EB" d="M376.28,44.47c-2.34-0.32-4.41-0.48-6.2-0.48c-6.51,0-10.78,2.21-12.81,6.62v42.2h-17.22V28.31h16.26
	L356.8,36c3.45-5.92,8.24-8.88,14.36-8.88c1.91,0,3.69,0.26,5.36,0.78L376.28,44.47z"/>
<path fill="#4793EB" d="M379.73,59.96c0-6.4,1.23-12.1,3.69-17.11c2.46-5.01,6.01-8.88,10.63-11.62c4.63-2.74,10-4.11,16.11-4.11
	c8.7,0,15.79,2.66,21.29,7.99c5.5,5.33,8.57,12.56,9.2,21.7l0.12,4.41c0,9.89-2.76,17.83-8.28,23.81
	c-5.52,5.98-12.93,8.97-22.22,8.97c-9.29,0-16.71-2.98-22.25-8.94c-5.54-5.96-8.31-14.07-8.31-24.32V59.96z M396.95,61.19
	c0,6.13,1.15,10.82,3.45,14.06c2.3,3.24,5.6,4.87,9.89,4.87c4.17,0,7.42-1.6,9.77-4.81c2.34-3.2,3.51-8.33,3.51-15.37
	c0-6.01-1.17-10.67-3.51-13.97c-2.34-3.3-5.64-4.95-9.89-4.95c-4.21,0-7.47,1.64-9.77,4.93C398.1,49.22,396.95,54.3,396.95,61.19z"
	/>
<path fill="#4793EB" d="M467.24,28.31l0.54,7.45c4.61-5.76,10.78-8.64,18.53-8.64c6.83,0,11.91,2.01,15.25,6.02
	c3.34,4.01,5.04,10.01,5.12,18v41.67h-17.21V51.56c0-3.66-0.8-6.31-2.38-7.96c-1.59-1.65-4.23-2.47-7.92-2.47
	c-4.85,0-8.48,2.07-10.9,6.2v45.48h-17.21V28.31H467.24z"/>
<path fill="#4793EB" d="M540.32,12.46v15.86h11.02v12.64h-11.02v32.19c0,2.38,0.46,4.09,1.37,5.13c0.91,1.03,2.66,1.55,5.24,1.55
	c1.91,0,3.59-0.14,5.06-0.42v13.05c-3.38,1.03-6.85,1.55-10.42,1.55c-12.07,0-18.23-6.1-18.47-18.3V40.95h-9.41V28.31h9.41V12.46
	H540.32z"/>
</svg>
